<svg width="495" height="113" viewBox="0 0 495 113" fill="none" xmlns="http://www.w3.org/2000/svg">
<path d="M90 49C90 68.415 74.6329 84 55.8644 84C37.0959 84 21.7288 68.415 21.7288 49C21.7288 29.585 37.0959 14 55.8644 14C74.6329 14 90 29.585 90 49Z" stroke="#BF3F3F" stroke-width="8"/>
<path d="M75.2458 50.04C75.2458 61.1048 66.4949 69.94 55.8644 69.94C45.2339 69.94 36.4831 61.1048 36.4831 50.04C36.4831 38.9752 45.2339 30.14 55.8644 30.14C66.4949 30.14 75.2458 38.9752 75.2458 50.04Z" stroke="#BF3F3F" stroke-width="7"/>
<path d="M59.4746 49.26C59.4746 51.2567 57.909 52.76 56.1186 52.76C54.3282 52.76 52.7627 51.2567 52.7627 49.26C52.7627 47.2633 54.3282 45.76 56.1186 45.76C57.909 45.76 59.4746 47.2633 59.4746 49.26Z" stroke="#BF3F3F" stroke-width="6"/>
<line y1="-3" x2="17.4201" y2="-3" transform="matrix(-0.963236 -0.268655 0.257677 -0.966231 52.8136 44.84)" stroke="#BF3F3F" stroke-width="6"/>
<line x1="54.3898" y1="44.9467" x2="54.3898" y2="27.16" stroke="#BF3F3F" stroke-width="6"/>
<line y1="-3" x2="17.4201" y2="-3" transform="matrix(0.963236 -0.268655 -0.257677 -0.966231 58.9153 44.84)" stroke="#BF3F3F" stroke-width="6"/>
<line y1="-3" x2="17.5907" y2="-3" transform="matrix(-0.699139 0.714986 0.699139 0.714986 53.9255 54.2)" stroke="#BF3F3F" stroke-width="6"/>
<line y1="-3" x2="17.5907" y2="-3" transform="matrix(0.699139 0.714986 -0.699139 0.714986 57.3898 54.2)" stroke="#BF3F3F" stroke-width="6"/>
<path d="M23.8305 8.08C21.6214 8.08 19.8305 9.87086 19.8305 12.08C19.8305 14.2891 21.6214 16.08 23.8305 16.08V8.08ZM58.9153 8.08L23.8305 8.08V16.08L58.9153 16.08V8.08Z" fill="#BF3F3F"/>
<path d="M4 81.92C1.79086 81.92 3.51667e-06 83.7109 3.51667e-06 85.92C3.51667e-06 88.1291 1.79086 89.92 4 89.92V81.92ZM57.3898 81.92H4V89.92H57.3898V81.92Z" fill="#BF3F3F"/>
<line x1="28.9831" y1="22.84" x2="12.0678" y2="22.84" stroke="#BF3F3F" stroke-width="8" stroke-linecap="round"/>
<line x1="28.9831" y1="77.44" x2="16.6441" y2="77.44" stroke="#BF3F3F" stroke-width="8" stroke-linecap="round"/>
<path d="M117.687 82H109.952L98.2627 70.3545V35.3301L109.952 23.6846H117.687V82ZM120.763 35.3301V23.6846H141.461L153.106 35.3301V47.0635H133.683V35.3301H120.763ZM120.763 82V70.3545H133.683V61.8291H153.106V70.3545L141.461 82H120.763ZM181.847 58.0498V82H162.423V23.6846H181.847V46.7998H200.436V58.0498H181.847ZM184.923 34.9785V23.6846H215.289V40.5596H197.008V34.9785H184.923ZM184.923 82V70.3545H195.865V64.5098H215.289V82H184.923ZM224.649 82V23.6846H244.073V82H224.649ZM247.149 35.3301V23.6846H269.342L281.031 35.3301V52.8203L272.066 61.7852L271.451 60.5547L253.214 62.9717L253.917 64.5098H247.149V53.2158H261.739V35.3301H247.149ZM283.009 82H262.267L253.917 64.5098H269.342L272.066 61.7852L283.009 82ZM328.229 75.6279H309.156L313.199 64.0703H323.746L308.146 23.6846H327.086L350.333 82H330.689L328.229 75.6279ZM303.971 82H285.206L306.036 26.3213L314.649 49.4805L303.971 82ZM362.33 39.417H382.545V82H362.33V39.417ZM347.125 23.6846H397.75V36.3848H347.125V23.6846ZM417.525 39.417H437.74V82H417.525V39.417ZM402.32 23.6846H452.945V36.3848H402.32V23.6846ZM459.493 69.5635H465.338V36.0771H459.493V23.6846H490.606V36.0771H484.762V69.5635H490.606V82H459.493V69.5635Z" fill="#C62222"/>
</svg>
