<svg width="493" height="113" viewBox="0 0 493 113" fill="none" xmlns="http://www.w3.org/2000/svg">
<path d="M88 49C88 68.415 72.6329 84 53.8644 84C35.0959 84 19.7288 68.415 19.7288 49C19.7288 29.585 35.0959 14 53.8644 14C72.6329 14 88 29.585 88 49Z" stroke="#BF3F3F" stroke-width="8"/>
<path d="M73.2458 50.04C73.2458 61.1048 64.4949 69.94 53.8644 69.94C43.2339 69.94 34.4831 61.1048 34.4831 50.04C34.4831 38.9752 43.2339 30.14 53.8644 30.14C64.4949 30.14 73.2458 38.9752 73.2458 50.04Z" stroke="#BF3F3F" stroke-width="7"/>
<path d="M57.4746 49.26C57.4746 51.2567 55.909 52.76 54.1186 52.76C52.3282 52.76 50.7627 51.2567 50.7627 49.26C50.7627 47.2633 52.3282 45.76 54.1186 45.76C55.909 45.76 57.4746 47.2633 57.4746 49.26Z" stroke="#BF3F3F" stroke-width="6"/>
<line y1="-2.5" x2="17.4201" y2="-2.5" transform="matrix(-0.963236 -0.268655 0.257677 -0.966231 50.8136 44.84)" stroke="#BF3F3F" stroke-width="5"/>
<line x1="52.8898" y1="44.9467" x2="52.8898" y2="27.16" stroke="#BF3F3F" stroke-width="5"/>
<line y1="-2.5" x2="17.4201" y2="-2.5" transform="matrix(0.963236 -0.268655 -0.257677 -0.966231 56.9153 44.84)" stroke="#BF3F3F" stroke-width="5"/>
<line y1="-2.5" x2="17.5907" y2="-2.5" transform="matrix(-0.699139 0.714986 0.699139 0.714986 51.9255 54.2)" stroke="#BF3F3F" stroke-width="5"/>
<line y1="-2.5" x2="17.5907" y2="-2.5" transform="matrix(0.699139 0.714986 -0.699139 0.714986 55.3898 54.2)" stroke="#BF3F3F" stroke-width="5"/>
<path d="M23 10.5C21.067 10.5 19.5 12.067 19.5 14C19.5 15.933 21.067 17.5 23 17.5V10.5ZM58.0847 10.5L23 10.5V17.5L58.0847 17.5V10.5Z" fill="#BF3F3F"/>
<path d="M4 80.5C2.06701 80.5 0.500004 82.067 0.500004 84C0.500004 85.933 2.06701 87.5 4 87.5V80.5ZM57.3898 80.5H4V87.5H57.3898V80.5Z" fill="#BF3F3F"/>
<line x1="28.4153" y1="24.5" x2="10.5" y2="24.5" stroke="#BF3F3F" stroke-width="7" stroke-linecap="round"/>
<line x1="28.839" y1="72.5" x2="15.5" y2="72.5" stroke="#BF3F3F" stroke-width="7" stroke-linecap="round"/>
<path d="M115.687 82H107.952L96.2627 70.3545V35.3301L107.952 23.6846H115.687V82ZM118.763 35.3301V23.6846H139.461L151.106 35.3301V47.0635H131.683V35.3301H118.763ZM118.763 82V70.3545H131.683V61.8291H151.106V70.3545L139.461 82H118.763ZM179.847 58.0498V82H160.423V23.6846H179.847V46.7998H198.436V58.0498H179.847ZM182.923 34.9785V23.6846H213.289V40.5596H195.008V34.9785H182.923ZM182.923 82V70.3545H193.865V64.5098H213.289V82H182.923ZM222.649 82V23.6846H242.073V82H222.649ZM245.149 35.3301V23.6846H267.342L279.031 35.3301V52.8203L270.066 61.7852L269.451 60.5547L251.214 62.9717L251.917 64.5098H245.149V53.2158H259.739V35.3301H245.149ZM281.009 82H260.267L251.917 64.5098H267.342L270.066 61.7852L281.009 82ZM326.229 75.6279H307.156L311.199 64.0703H321.746L306.146 23.6846H325.086L348.333 82H328.689L326.229 75.6279ZM301.971 82H283.206L304.036 26.3213L312.649 49.4805L301.971 82ZM360.33 39.417H380.545V82H360.33V39.417ZM345.125 23.6846H395.75V36.3848H345.125V23.6846ZM415.525 39.417H435.74V82H415.525V39.417ZM400.32 23.6846H450.945V36.3848H400.32V23.6846ZM457.493 69.5635H463.338V36.0771H457.493V23.6846H488.606V36.0771H482.762V69.5635H488.606V82H457.493V69.5635Z" fill="#C62222"/>
</svg>
