<svg xmlns="http://www.w3.org/2000/svg" xmlns:xlink="http://www.w3.org/1999/xlink" viewBox="0 0 128 128"><defs><linearGradient xlink:href="#a" id="i" x1="492.68" x2="593.26" y1="814.67" y2="814.67" gradientUnits="userSpaceOnUse"/><linearGradient id="a"><stop offset="0" stop-color="#e4e4cd"/><stop offset="1" stop-color="#858585"/></linearGradient><linearGradient xlink:href="#a" id="g" x1="525.71" x2="543.91" y1="814.71" y2="814.71" gradientUnits="userSpaceOnUse"/><linearGradient xlink:href="#b" id="h" x1="529.99" x2="539.37" y1="814.01" y2="814.01" gradientUnits="userSpaceOnUse"/><linearGradient id="b"><stop offset="0"/><stop offset="1" stop-opacity="0"/></linearGradient><linearGradient xlink:href="#a" id="e" x1="695.92" x2="792.08" y1="956" y2="956" gradientTransform="scale(2.33555) rotate(9 4003.484 -2023.587)" gradientUnits="userSpaceOnUse"/><linearGradient xlink:href="#c" id="f" x1="695.92" x2="792.08" y1="956" y2="956" gradientTransform="scale(2.33555) rotate(9 4003.484 -2023.587)" gradientUnits="userSpaceOnUse"/><linearGradient id="c"><stop offset="0" stop-color="#252525"/><stop offset="1" stop-color="#232323"/></linearGradient><radialGradient xlink:href="#c" id="d" cx="328" cy="536" r="80" gradientUnits="userSpaceOnUse"/></defs><path fill="#1a1a1a" d="M128.01 64.016c0 35.346-28.654 64-64.001 64-35.346 0-64.001-28.654-64.001-64S28.66.015 64.008.015s64.002 28.654 64.002 64z"/><path fill="url(#d)" d="M408 536c0 44.183-35.817 80-80 80s-80-35.817-80-80 35.817-80 80-80 80 35.817 80 80z" transform="translate(-191.54 -353.59) scale(.77907)"/><path fill="url(#sand_bitmap)" d="M591.41 814.67c0 26.859-21.686 48.633-48.438 48.633-26.751 0-48.438-21.774-48.438-48.633s21.686-48.633 48.438-48.633c26.751 0 48.438 21.774 48.438 48.633z" opacity=".08" transform="matrix(1.2595 0 0 1.2822 -619.54 -981.49)"/><path fill="#333" d="M114.304 63.403c0 27.381-22.382 49.578-49.993 49.578-27.61 0-49.992-22.197-49.992-49.578S36.7 13.825 64.31 13.825c27.61 0 49.993 22.197 49.993 49.578z"/><path fill="url(#e)" d="M719.38 912.53a50.193 50.193 0 0 0-11.062 7.875c8.112 9.958 13.65 19.744 10.906 28.188-2.762 8.501-13.125 13.208-25.656 16.5.818 4.559 2.236 8.901 4.219 12.938 12.073-4.703 23.206-7.004 30.438-1.75 7.18 5.217 8.458 16.367 7.75 29.188 2.214.297 4.484.469 6.781.469s4.567-.172 6.781-.469c-.708-12.82.6-23.97 7.781-29.188 7.232-5.254 18.333-2.953 30.406 1.75 1.983-4.036 3.401-8.379 4.22-12.938-12.532-3.292-22.895-7.999-25.657-16.5-2.743-8.444 2.794-18.229 10.906-28.188a50.067 50.067 0 0 0-11.03-7.875c-6.95 10.75-14.56 18.97-23.41 18.97-8.854 0-16.428-8.221-23.376-18.969z" transform="translate(-678.451 -892.982)"/><path fill="url(#f)" d="M715.97 914.5a50.486 50.486 0 0 0-4.688 3.344c12.975 16.465 24.263 31.448 22.906 35.625-1.364 4.2-19.496 9.708-39.812 15.438a48.807 48.807 0 0 0 1.813 5.531c19.796-7.304 37.709-13.502 41.281-10.906 3.555 2.583 3.226 21.353 2.406 42.313.955.054 1.907.094 2.875.094s1.92-.04 2.875-.094c-.82-20.96-1.148-39.73 2.406-42.313 3.572-2.595 21.485 3.603 41.281 10.906a48.82 48.82 0 0 0 1.813-5.531c-20.317-5.73-38.448-11.237-39.812-15.438-1.357-4.177 9.932-19.16 22.906-35.625a50.257 50.257 0 0 0-4.688-3.344c-11.64 17.412-22.393 32.75-26.78 32.75-4.39 0-15.14-15.334-26.782-32.75z" transform="translate(-678.451 -892.982)"/><path fill="url(#g)" d="M543.41 814.71c0 4.942-3.85 8.948-8.6 8.948s-8.6-4.006-8.6-8.948 3.85-8.948 8.6-8.948 8.6 4.006 8.6 8.948z" transform="matrix(2.099 0 0 2.1276 -1058.24 -1669.95)"/><path fill="url(#g)" stroke="#000" d="M543.41 814.71c0 4.942-3.85 8.948-8.6 8.948s-8.6-4.006-8.6-8.948 3.85-8.948 8.6-8.948 8.6 4.006 8.6 8.948z" transform="matrix(1.2895 0 0 1.307 -625.32 -1001.45)"/><g fill="url(#h)" transform="matrix(1.2895 0 0 1.307 -625.1 -1000.39)"><path d="M532.782 809.505c0 .767-.633 1.389-1.415 1.389s-1.415-.622-1.415-1.389.633-1.389 1.415-1.389 1.415.622 1.415 1.389zM539.441 809.321c0 .767-.633 1.389-1.415 1.389s-1.415-.622-1.415-1.389.633-1.389 1.415-1.389 1.415.622 1.415 1.389zM541.24 815.83c0 .767-.634 1.389-1.416 1.389-.782 0-1.415-.622-1.415-1.389s.633-1.389 1.415-1.389 1.415.622 1.415 1.389zM530.935 816.165c0 .767-.633 1.389-1.415 1.389s-1.415-.622-1.415-1.389.633-1.389 1.415-1.389 1.415.622 1.415 1.389zM536.122 819.845c0 .767-.633 1.389-1.415 1.389s-1.415-.622-1.415-1.389.633-1.389 1.415-1.389 1.415.622 1.415 1.389z"/></g><path fill="none" stroke="url(#i)" stroke-width="3.711" d="M591.41 814.67c0 27.454-21.686 49.71-48.438 49.71-26.751 0-48.438-22.256-48.438-49.71s21.686-49.71 48.438-49.71c26.751 0 48.438 22.256 48.438 49.71z" transform="matrix(1.0321 0 0 .99734 -496.09 -749.1)"/></svg>